<?xml version="1.0" standalone="no"?>
<!DOCTYPE svg PUBLIC "-//W3C//DTD SVG 20010904//EN"
 "http://www.w3.org/TR/2001/REC-SVG-20010904/DTD/svg10.dtd">
<svg version="1.0" xmlns="http://www.w3.org/2000/svg"
 width="260.000000pt" height="260.000000pt" viewBox="0 0 260.000000 260.000000"
 preserveAspectRatio="xMidYMid meet">
<metadata>
Created by potrace 1.14, written by Peter Selinger 2001-2017
</metadata>
<g transform="translate(0.000000,260.000000) scale(0.100000,-0.100000)"
fill="#000000" stroke="none">
<path d="M1236 2333 c-11 -3 -37 -16 -57 -29 -132 -83 -132 -280 1 -368 38
-25 72 -33 179 -41 74 -6 179 -40 248 -81 62 -36 172 -146 207 -207 113 -194
108 -453 -12 -632 -121 -180 -309 -276 -524 -270 -128 4 -231 39 -330 113
-150 112 -219 237 -243 439 -15 132 -38 182 -103 228 -40 27 -51 30 -120 30
-69 0 -82 -3 -122 -30 -31 -21 -54 -47 -73 -85 -25 -50 -28 -64 -26 -145 10
-377 245 -730 599 -898 231 -110 529 -126 778 -40 331 113 578 379 670 722 22
84 25 116 25 261 1 128 -3 179 -17 230 -10 36 -19 72 -21 80 -2 8 -21 56 -42
106 -155 360 -508 606 -888 619 -60 2 -119 1 -129 -2z"/>
</g>
</svg>
